<?xml version="1.0" encoding="utf-8"?>
<!-- Generator: Adobe Illustrator 23.0.1, SVG Export Plug-In . SVG Version: 6.00 Build 0)  -->
<svg version="1.1" id="Calque_1" xmlns="http://www.w3.org/2000/svg" xmlns:xlink="http://www.w3.org/1999/xlink" x="0px" y="0px"
	 viewBox="0 0 155.3 185.4" style="enable-background:new 0 0 155.3 185.4;" xml:space="preserve">
<style type="text/css">
	.st0{fill:#9E9E9E;}
</style>
<g>
	<path class="st0" d="M117.8,185.4v-30.2l-48.3-37.4h48.3V94.4h-12.5c7.5-7.7,12.2-17.6,14.1-29.8c0.6-4.1,1-8.3,1-12.8
		c0-1.6-0.1-3.2-0.1-4.9c-0.3-6.1-1.3-11.8-3-16.9c-4.5-13.2-13.2-22.2-26-27C85.5,1,79.8,0,74.2,0H57.1v48.2h20.8V22.8
		c6.2,0.3,11.2,2.8,14.8,7.3c2.3,2.9,3.9,6.2,4.8,9.9c0.9,3.7,1.3,7.5,1.3,11.4c0,10.7-3.4,19.4-10.2,26.1c-6.8,6.7-15.8,10-27.1,10
		c-11,0-19.8-3.3-26.5-10c-6.8-6.7-10.2-15.3-10.2-25.9c0-7.7,2.1-14.2,6.3-19.6c1.2-1.5,2.3-2.8,3.4-3.8c1.1-1,2.3-2.2,3.7-3.4
		L25.1,7.2c-2.2,1.8-4.1,3.5-5.8,5.1c-1.7,1.5-3.4,3.5-5.3,5.8C11.7,21,9.6,24.3,7.8,28C4.6,35.1,3,42.9,3,51.3v0.2
		C3,60,4.4,67.9,7.1,75.2C10,82.6,14.1,89,19.4,94.4H5.5v23.4h38.7L5.5,151.5v29.4L55.9,136L117.8,185.4z"/>
	<circle class="st0" cx="141.2" cy="171.3" r="14.1"/>
</g>
</svg>
