<?xml version="1.0" encoding="utf-8"?>
<!-- Generator: Adobe Illustrator 16.0.0, SVG Export Plug-In . SVG Version: 6.00 Build 0)  -->
<!DOCTYPE svg PUBLIC "-//W3C//DTD SVG 1.1//EN" "http://www.w3.org/Graphics/SVG/1.1/DTD/svg11.dtd">
<svg version="1.1" id="Calque_1" xmlns="http://www.w3.org/2000/svg" xmlns:xlink="http://www.w3.org/1999/xlink" x="0px" y="0px"
	 width="155.311px" height="185.375px" viewBox="0 0 155.311 185.375" enable-background="new 0 0 155.311 185.375"
	 xml:space="preserve">
<g>
	<path fill="white" d="M117.768,185.375v-30.198l-48.286-37.375h48.286V94.399h-12.542c7.453-7.672,12.166-17.601,14.112-29.816
		c0.646-4.088,0.973-8.347,0.973-12.785c0-1.592-0.051-3.207-0.147-4.856c-0.299-6.13-1.297-11.763-2.99-16.892
		c-4.534-13.159-13.211-22.154-26.02-26.984C85.477,1.025,79.821,0,74.19,0H57.07v48.214h20.778V22.798
		c6.233,0.347,11.164,2.77,14.808,7.253c2.338,2.89,3.944,6.186,4.816,9.907c0.874,3.708,1.309,7.51,1.309,11.398
		c0,10.714-3.409,19.411-10.243,26.09c-6.774,6.676-15.793,10.013-27.058,10.013c-10.963,0-19.786-3.337-26.465-10.013
		c-6.776-6.679-10.161-15.327-10.161-25.943c0-7.675,2.09-14.207,6.276-19.583c1.196-1.5,2.345-2.753,3.44-3.778
		c1.093-1.025,2.339-2.158,3.739-3.402L25.074,7.249c-2.19,1.847-4.122,3.538-5.796,5.081c-1.664,1.546-3.422,3.469-5.267,5.758
		c-2.34,2.892-4.41,6.205-6.205,9.945C4.565,35.104,2.95,42.852,2.95,51.28v0.223c0.046,8.522,1.442,16.424,4.19,23.699
		c2.834,7.37,6.917,13.77,12.24,19.197H5.489v23.402h38.722L5.489,151.516v29.378l50.387-44.929L117.768,185.375z"/>
	<circle fill="white" cx="141.231" cy="171.296" r="14.08"/>
</g>
</svg>
